<svg width="35" height="34" viewBox="0 0 35 34" fill="none" xmlns="http://www.w3.org/2000/svg">
<path d="M10.2125 26.775C8.29077 26.775 6.71875 28.3105 6.71875 30.1876C6.71875 32.0646 8.29077 33.6001 10.2125 33.6001C12.1342 33.6001 13.7063 32.0646 13.7063 30.1876C13.7063 28.3104 12.1341 26.775 10.2125 26.775ZM0 0V3.4125H3.49375L9.78275 15.8552L7.15337 20.035C6.89151 20.4616 6.71665 21.0589 6.71665 21.6563C6.71665 23.9409 8.31445 25.0688 10.4812 25.0688H30.9062V21.7876H10.909C10.6471 21.7876 10.4723 21.6168 10.4723 21.361C10.4723 21.276 10.6576 20.9345 10.6576 20.9345L12.403 18.2438H25.4167C26.7269 18.2438 27.863 17.5616 28.4737 16.4526L34.7626 5.88697C34.8665 5.6851 34.9375 5.37461 34.9375 5.03393C34.9375 4.095 34.1511 3.41258 33.1906 3.41258H7.33721L5.67734 0H0ZM27.4124 26.775C25.4907 26.775 23.9187 28.3105 23.9187 30.1876C23.9187 32.0646 25.4907 33.6001 27.4124 33.6001C29.3341 33.6001 30.9062 32.0645 30.9062 30.1875C30.9062 28.3104 29.3341 26.775 27.4124 26.775Z" fill="white"/>
</svg>
